HIERARCHY
ROOT hip
{
  OFFSET 0 0 0
  CHANNELS 6 Xposition Yposition Zposition Zrotation Yrotation Xrotation
  JOINT abdomen
  {
    OFFSET 0 20.6881 -0.73152
    CHANNELS 3 Zrotation Xrotation Yrotation
    JOINT chest
    {
      OFFSET 0 11.7043 -0.48768
      CHANNELS 3 Zrotation Xrotation Yrotation
      JOINT neck
      {
        OFFSET 0 22.1894 -2.19456
        CHANNELS 3 Zrotation Xrotation Yrotation
        JOINT head
        {
          OFFSET -0.24384 7.07133 1.2192
          CHANNELS 3 Zrotation Xrotation Yrotation
          JOINT leftEye
          {
            OFFSET 4.14528 8.04674 8.04672
            CHANNELS 3 Zrotation Xrotation Yrotation
            End Site
            {
              OFFSET 1 0 0
            }
          }
          JOINT rightEye
          {
            OFFSET -3.6576 8.04674 8.04672
            CHANNELS 3 Zrotation Xrotation Yrotation
            End Site
            {
              OFFSET 1 0 0
            }
          }
        }
      }
      JOINT rCollar
      {
        OFFSET -2.68224 19.2634 -4.8768
        CHANNELS 3 Zrotation Xrotation Yrotation
        JOINT rShldr
        {
          OFFSET -8.77824 -1.95073 1.46304
          CHANNELS 3 Zrotation Xrotation Yrotation
          JOINT rForeArm
          {
            OFFSET -28.1742 -1.7115 0.48768
            CHANNELS 3 Zrotation Xrotation Yrotation
            JOINT rHand
            {
              OFFSET -22.5879 0.773209 7.07136
              CHANNELS 3 Zrotation Xrotation Yrotation
              JOINT rThumb1
              {
                OFFSET -1.2192 -0.487915 3.41376
                CHANNELS 3 Zrotation Xrotation Yrotation
                JOINT rThumb2
                {
                  OFFSET -3.37035 -0.52449 3.41376
                  CHANNELS 3 Zrotation Xrotation Yrotation
                  End Site
                  {
                    OFFSET -1.78271 -1.18214 1.43049
                  }
                }
              }
              JOINT rIndex1
              {
                OFFSET -7.75947 0.938293 5.60832
                CHANNELS 3 Zrotation Xrotation Yrotation
                JOINT rIndex2
                {
                  OFFSET -2.54057 -0.884171 1.56538
                  CHANNELS 3 Zrotation Xrotation Yrotation
                  End Site
                  {
                    OFFSET -1.62519 -0.234802 1.16502
                  }
                }
              }
              JOINT rMid1
              {
                OFFSET -8.24714 1.18213 3.41376
                CHANNELS 3 Zrotation Xrotation Yrotation
                JOINT rMid2
                {
                  OFFSET -3.10165 -0.590103 1.0647
                  CHANNELS 3 Zrotation Xrotation Yrotation
                  End Site
                  {
                    OFFSET -2.48547 -0.328903 0.83742
                  }
                }
              }
              JOINT rRing1
              {
                OFFSET -8.82822 0.546677 1.51678
                CHANNELS 3 Zrotation Xrotation Yrotation
                JOINT rRing2
                {
                  OFFSET -2.60934 -0.819778 -0.0198488
                  CHANNELS 3 Zrotation Xrotation Yrotation
                  End Site
                  {
                    OFFSET -2.33842 -0.294052 0.168128
                  }
                }
              }
              JOINT rPinky1
              {
                OFFSET -8.27202 -0.0477905 -0.4584
                CHANNELS 3 Zrotation Xrotation Yrotation
                JOINT rPinky2
                {
                  OFFSET -1.82734 -0.647385 -0.700984
                  CHANNELS 3 Zrotation Xrotation Yrotation
                  End Site
                  {
                    OFFSET -1.69225 -0.51767 -0.607171
                  }
                }
              }
            }
          }
        }
      }
      JOINT lCollar
      {
        OFFSET 2.68224 19.2634 -4.8768
        CHANNELS 3 Zrotation Xrotation Yrotation
        JOINT lShldr
        {
          OFFSET 8.77824 -1.95073 1.46304
          CHANNELS 3 Zrotation Xrotation Yrotation
          JOINT lForeArm
          {
            OFFSET 28.1742 -1.7115 0.48768
            CHANNELS 3 Zrotation Xrotation Yrotation
            JOINT lHand
            {
              OFFSET 22.5879 0.773209 7.07136
              CHANNELS 3 Zrotation Xrotation Yrotation
              JOINT lThumb1
              {
                OFFSET 1.2192 -0.487915 3.41376
                CHANNELS 3 Zrotation Xrotation Yrotation
                JOINT lThumb2
                {
                  OFFSET 3.37035 -0.52449 3.41376
                  CHANNELS 3 Zrotation Xrotation Yrotation
                  End Site
                  {
                    OFFSET 1.78271 -1.18214 1.43049
                  }
                }
              }
              JOINT lIndex1
              {
                OFFSET 7.75947 0.938293 5.60832
                CHANNELS 3 Zrotation Xrotation Yrotation
                JOINT lIndex2
                {
                  OFFSET 2.54057 -0.884171 1.56538
                  CHANNELS 3 Zrotation Xrotation Yrotation
                  End Site
                  {
                    OFFSET 1.62519 -0.234802 1.16502
                  }
                }
              }
              JOINT lMid1
              {
                OFFSET 8.24714 1.18213 3.41376
                CHANNELS 3 Zrotation Xrotation Yrotation
                JOINT lMid2
                {
                  OFFSET 3.10165 -0.590103 1.0647
                  CHANNELS 3 Zrotation Xrotation Yrotation
                  End Site
                  {
                    OFFSET 2.48547 -0.328903 0.83742
                  }
                }
              }
              JOINT lRing1
              {
                OFFSET 8.82822 0.546677 1.51678
                CHANNELS 3 Zrotation Xrotation Yrotation
                JOINT lRing2
                {
                  OFFSET 2.60934 -0.819778 -0.0198488
                  CHANNELS 3 Zrotation Xrotation Yrotation
                  End Site
                  {
                    OFFSET 2.33842 -0.294052 0.168128
                  }
                }
              }
              JOINT lPinky1
              {
                OFFSET 8.27202 -0.0477905 -0.4584
                CHANNELS 3 Zrotation Xrotation Yrotation
                JOINT lPinky2
                {
                  OFFSET 1.82734 -0.647385 -0.700984
                  CHANNELS 3 Zrotation Xrotation Yrotation
                  End Site
                  {
                    OFFSET 1.69225 -0.51767 -0.607171
                  }
                }
              }
            }
          }
        }
      }
    }
  }
  JOINT rButtock
  {
    OFFSET -8.77824 4.35084 1.2192
    CHANNELS 3 Zrotation Xrotation Yrotation
    JOINT rThigh
    {
      OFFSET 0 -1.70687 -2.19456
      CHANNELS 3 Zrotation Xrotation Yrotation
      JOINT rShin
      {
        OFFSET 0 -36.8199 0.73152
        CHANNELS 3 Zrotation Xrotation Yrotation
        JOINT rFoot
        {
          OFFSET 0.73152 -45.1104 -5.12064
          CHANNELS 3 Zrotation Xrotation Yrotation
          End Site
          {
            OFFSET -1.1221 -3.69964 12.103
          }
        }
      }
    }
  }
  JOINT lButtock
  {
    OFFSET 8.77824 4.35084 1.2192
    CHANNELS 3 Zrotation Xrotation Yrotation
    JOINT lThigh
    {
      OFFSET 0 -1.70687 -2.19456
      CHANNELS 3 Zrotation Xrotation Yrotation
      JOINT lShin
      {
        OFFSET 0 -36.8199 0.73152
        CHANNELS 3 Zrotation Xrotation Yrotation
        JOINT lFoot
        {
          OFFSET -0.73152 -45.1104 -5.12064
          CHANNELS 3 Zrotation Xrotation Yrotation
          End Site
          {
            OFFSET 1.1221 -3.69964 12.103
          }
        }
      }
    }
  }
}
MOTION
Frames:	8
Frame Time:	0.00833333
-12.2834 77.9896 -166.613 -8.5425 -5.3266 8.997 8.15594 17.6367 4.62027 1.00184 -6.16135 1.72802 -0.147524 4.38477 1.25572 -2.78659 -11.9785 2.21024 -0.0 0.0 0.0 -0.0 0.0 0.0 -5.92184e-16 -3.07889e-14 -1.29154e-13 77.9155 13.8649 7.69818 -12.8683 -6.07502 23.3062 -0.0482177 6.29671 0.88848 2.9028e-11 -9.4959e-10 2.44859e-10 4.96975e-11 -1.64247e-09 4.22161e-10 2.90329e-11 -9.49591e-10 2.44849e-10 7.73091 5.47488 0.417314 2.90276e-11 -9.49591e-10 2.44852e-10 2.90554 0.965183 0.102902 2.90358e-11 -9.49592e-10 2.44852e-10 10.2786 0.731801 0.0259123 2.9028e-11 -9.49593e-10 2.44857e-10 2.22167 -0.733487 -0.20892 -5.92046e-16 -3.07846e-14 -1.29361e-13 -85.1978 2.37171 9.4879 17.0123 -9.66272 -31.8406 0.000604122 0.528286 -0.0742473 -3.32549e-10 2.80407e-10 -5.86206e-10 -5.75529e-10 4.85118e-10 -1.01482e-09 -3.32562e-10 2.80402e-10 -5.86203e-10 -7.73091 5.47488 -0.417314 -3.32548e-10 2.80402e-10 -5.8621e-10 -2.90554 0.965183 -0.102902 -3.32558e-10 2.80404e-10 -5.86208e-10 -10.2786 0.731801 -0.0259123 -3.32549e-10 2.80407e-10 -5.86211e-10 -2.22167 -0.733487 0.20892 -2.03217e-16 0.0 -3.88251e-19 3.60095 -5.3251 -8.2199 -0.113394 27.7107 0.589433 -2.66314 -30.2794 -5.052 2.03217e-16 0.0 3.88251e-19 22.0605 -35.2113 4.3402 1.94713 69.686 -2.63866 -0.148447 -7.24641 -0.508288
-12.6632 77.7444 -165.828 -9.2434 -6.4533 9.6199 8.55987 18.2922 5.62197 0.724702 -6.18015 2.02255 -0.148586 4.28869 1.24549 -2.96243 -12.7079 2.15517 -0.0 0.0 0.0 -0.0 0.0 0.0 3.0615e-14 -2.28622e-14 -2.25742e-13 77.0583 15.4588 9.97712 -12.774 -6.00292 23.1251 -0.0579068 6.90593 0.975223 3.90552e-10 -8.94274e-10 -4.85733e-10 6.69637e-10 -1.54376e-09 -8.44537e-10 3.90557e-10 -8.94276e-10 -4.85742e-10 7.73091 5.47488 0.417314 3.90553e-10 -8.94277e-10 -4.8574e-10 2.90554 0.965183 0.102902 3.90561e-10 -8.94278e-10 -4.85737e-10 10.2786 0.731801 0.0259123 3.90551e-10 -8.94279e-10 -4.85731e-10 2.22167 -0.733487 -0.20892 3.06189e-14 -2.28584e-14 -2.25882e-13 -85.3891 1.91338 9.64274 16.9664 -9.6167 -31.7409 0.00105523 0.664581 -0.0934039 2.93471e-12 1.41795e-09 -5.22761e-10 6.42808e-12 2.45299e-09 -9.06176e-10 2.92527e-12 1.41795e-09 -5.22754e-10 -7.73091 5.47488 -0.417314 2.93507e-12 1.41795e-09 -5.22766e-10 -2.90554 0.965183 -0.102902 2.9293e-12 1.41795e-09 -5.22764e-10 -10.2786 0.731801 -0.0259123 2.93682e-12 1.41795e-09 -5.2277e-10 -2.22167 -0.733487 0.20892 -2.03217e-16 0.0 -3.88251e-19 4.12514 -5.17349 -7.76857 -0.106839 27.4579 0.597235 -2.70758 -30.7091 -5.03861 2.03217e-16 0.0 3.88251e-19 22.1735 -38.6776 5.38714 2.46604 72.6334 -3.10721 -0.950332 -8.72269 -3.41462
-12.9382 77.5076 -164.961 -9.5484 -7.3523 10.2794 8.8411 18.8542 6.62378 0.461146 -6.20535 2.30817 -0.138535 4.17858 1.22628 -3.12328 -13.3842 2.0829 -0.0 0.0 0.0 -0.0 0.0 0.0 4.59333e-14 -5.09544e-15 -3.21449e-13 76.0994 17.0721 12.2843 -12.7426 -5.97931 23.0641 -0.0679545 7.444 1.05211 8.85127e-10 -9.00877e-10 -1.1663e-09 1.51979e-09 -1.55184e-09 -2.02541e-09 8.85133e-10 -9.00881e-10 -1.16631e-09 7.73091 5.47488 0.417314 8.8513e-10 -9.00882e-10 -1.1663e-09 2.90554 0.965183 0.102902 8.85138e-10 -9.00883e-10 -1.1663e-09 10.2786 0.731801 0.0259123 8.85126e-10 -9.00884e-10 -1.16629e-09 2.22167 -0.733487 -0.20892 4.59338e-14 -5.09254e-15 -3.21526e-13 -85.6085 1.53239 9.83662 16.9388 -9.58922 -31.681 0.00109097 0.694788 -0.0976496 5.58156e-10 2.5929e-09 -3.87546e-10 9.68243e-10 4.48584e-09 -6.73448e-10 5.58151e-10 2.5929e-09 -3.87535e-10 -7.73091 5.47488 -0.417314 5.58156e-10 2.5929e-09 -3.87552e-10 -2.90554 0.965183 -0.102902 5.58154e-10 2.5929e-09 -3.8755e-10 -10.2786 0.731801 -0.0259123 5.5816e-10 2.5929e-09 -3.8756e-10 -2.22167 -0.733487 0.20892 -2.03217e-16 0.0 -3.88251e-19 4.5478 -4.99878 -7.39581 -0.0993566 27.109 0.606731 -2.72838 -31.0014 -4.98891 2.03217e-16 0.0 3.88251e-19 22.209 -42.0716 6.59955 2.99457 74.8863 -3.56683 -1.98678 -10.2532 -6.57311
-13.1866 77.2605 -164.039 -9.7431 -7.9917 11.0708 9.04876 19.2511 7.53865 0.236064 -6.29383 2.56245 -0.0984131 4.07603 1.186 -3.20272 -13.911 1.97537 -0.0 0.0 0.0 -0.0 0.0 0.0 1.94406e-14 1.90824e-14 -3.88674e-13 75.1412 18.6703 14.3793 -12.8387 -6.05448 23.2455 -0.0732202 7.69719 1.08839 1.52836e-09 -1.21366e-09 -1.30645e-09 2.63008e-09 -2.0901e-09 -2.27209e-09 1.52836e-09 -1.21366e-09 -1.30646e-09 7.73091 5.47488 0.417314 1.52836e-09 -1.21366e-09 -1.30645e-09 2.90554 0.965183 0.102902 1.52837e-09 -1.21366e-09 -1.30645e-09 10.2786 0.731801 0.0259123 1.52836e-09 -1.21366e-09 -1.30644e-09 2.22167 -0.733487 -0.20892 1.94231e-14 1.90839e-14 -3.88723e-13 -85.7935 1.37719 10.111 16.9446 -9.59522 -31.6931 0.000371129 0.550094 -0.077313 1.33377e-09 3.33942e-09 -2.48503e-10 2.31006e-09 5.7782e-09 -4.33903e-10 1.33376e-09 3.33942e-09 -2.4849e-10 -7.73091 5.47488 -0.417314 1.33377e-09 3.33942e-09 -2.48509e-10 -2.90554 0.965183 -0.102902 1.33377e-09 3.33942e-09 -2.48507e-10 -10.2786 0.731801 -0.0259123 1.33377e-09 3.33943e-09 -2.48519e-10 -2.22167 -0.733487 0.20892 -2.03217e-16 0.0 -3.88251e-19 4.95315 -4.65725 -7.24618 -0.0895088 26.4922 0.614647 -2.67514 -31.1849 -4.818 2.03217e-16 0.0 3.88251e-19 22.1468 -45.2612 7.80775 3.41018 76.2888 -3.89811 -3.05084 -11.343 -9.51595
-13.4965 77.0465 -163.046 -10.1332 -8.4492 11.9488 9.16522 19.4346 8.36372 0.0580149 -6.48361 2.78343 -0.0235806 3.98559 1.11836 -3.19375 -14.2009 1.8208 -0.0 0.0 0.0 -0.0 0.0 0.0 -9.35041e-14 6.90032e-14 -4.26496e-13 74.2262 20.349 16.2892 -13.0875 -6.24364 23.732 -0.0707213 7.56335 1.06924 2.62278e-09 -2.17321e-09 -4.97402e-10 4.52534e-09 -3.74729e-09 -8.79051e-10 2.62278e-09 -2.17321e-09 -4.97412e-10 7.73091 5.47488 0.417314 2.62278e-09 -2.17321e-09 -4.97407e-10 2.90554 0.965183 0.102902 2.62279e-09 -2.17322e-09 -4.97405e-10 10.2786 0.731801 0.0259123 2.62278e-09 -2.17322e-09 -4.97398e-10 2.22167 -0.733487 -0.20892 -9.35692e-14 6.90025e-14 -4.26572e-13 -85.927 1.53556 10.5011 16.9768 -9.62655 -31.7652 -0.000644784 0.15707 -0.022073 2.81939e-09 3.53964e-09 -2.58564e-11 4.87773e-09 6.12685e-09 -4.93477e-11 2.81939e-09 3.53964e-09 -2.58448e-11 -7.73091 5.47488 -0.417314 2.81939e-09 3.53964e-09 -2.58625e-11 -2.90554 0.965183 -0.102902 2.81939e-09 3.53964e-09 -2.58594e-11 -10.2786 0.731801 -0.0259123 2.8194e-09 3.53964e-09 -2.58712e-11 -2.22167 -0.733487 0.20892 -2.03217e-16 0.0 -3.88251e-19 5.38112 -4.06635 -7.32087 -0.0745868 25.4122 0.623096 -2.65907 -31.3618 -4.71038 2.03217e-16 0.0 3.88251e-19 21.9164 -48.3675 8.98122 3.5851 76.7153 -3.96108 -4.08698 -11.9079 -12.3205
-13.8483 76.8946 -161.941 -10.6357 -8.7631 12.9018 9.18953 19.4552 9.13343 -0.0859293 -6.73675 2.98187 0.0758303 3.89613 1.03084 -3.12755 -14.3258 1.63109 -0.0 0.0 0.0 -0.0 0.0 0.0 -2.66499e-13 1.39747e-13 -4.47489e-13 73.2987 22.0902 18.1223 -13.4463 -6.51609 24.4492 -0.0634814 7.17153 1.01323 4.0606e-09 -3.55745e-09 9.06631e-10 7.01733e-09 -6.13898e-09 1.54149e-09 4.06061e-09 -3.55744e-09 9.06619e-10 7.73091 5.47488 0.417314 4.0606e-09 -3.55745e-09 9.06628e-10 2.90554 0.965183 0.102902 4.06061e-09 -3.55745e-09 9.06626e-10 10.2786 0.731801 0.0259123 4.06061e-09 -3.55745e-09 9.06631e-10 2.22167 -0.733487 -0.20892 -2.66634e-13 1.39743e-13 -4.47626e-13 -86.0491 1.91097 10.9771 17.031 -9.67916 -31.887 -0.000653395 -0.429224 0.0603296 4.85153e-09 3.43988e-09 2.83998e-10 8.38924e-09 5.95751e-09 4.86272e-10 4.85153e-09 3.43988e-09 2.84006e-10 -7.73091 5.47488 -0.417314 4.85153e-09 3.43988e-09 2.83993e-10 -2.90554 0.965183 -0.102902 4.85153e-09 3.43988e-09 2.83997e-10 -10.2786 0.731801 -0.0259123 4.85154e-09 3.43988e-09 2.83986e-10 -2.22167 -0.733487 0.20892 -2.03217e-16 0.0 -3.88251e-19 5.78771 -3.31844 -7.5556 -0.0557936 24.0104 0.632954 -2.66607 -31.4853 -4.64245 2.03217e-16 0.0 3.88251e-19 21.5598 -51.4087 10.2287 3.50564 76.278 -3.74472 -5.13844 -12.1935 -15.1567
-14.1928 76.8176 -160.717 -11.0657 -8.7841 13.8883 9.19744 19.3915 9.81598 -0.203216 -6.99617 3.15446 0.196617 3.80575 0.932031 -2.99562 -14.428 1.42351 -0.0 0.0 0.0 -0.0 0.0 0.0 -4.18905e-13 1.91507e-13 -4.44293e-13 72.3736 23.7171 19.7353 -13.8767 -6.85236 25.3146 -0.0546686 6.6548 0.939536 5.24198e-09 -4.76659e-09 2.25154e-09 9.06633e-09 -8.2288e-09 3.86125e-09 5.24198e-09 -4.76659e-09 2.25153e-09 7.73091 5.47488 0.417314 5.24198e-09 -4.76659e-09 2.25154e-09 2.90554 0.965183 0.102902 5.24199e-09 -4.76659e-09 2.25153e-09 10.2786 0.731801 0.0259123 5.24198e-09 -4.76659e-09 2.25154e-09 2.22167 -0.733487 -0.20892 -4.19101e-13 1.91501e-13 -4.44496e-13 -86.1827 2.37549 11.4824 17.1255 -9.77385 -32.0934 0.000970236 -1.08486 0.152492 6.45115e-09 3.12062e-09 4.98864e-10 1.11529e-08 5.40815e-09 8.5748e-10 6.45116e-09 3.12062e-09 4.98869e-10 -7.73091 5.47488 -0.417314 6.45116e-09 3.12062e-09 4.98859e-10 -2.90554 0.965183 -0.102902 6.45115e-09 3.12062e-09 4.98864e-10 -10.2786 0.731801 -0.0259123 6.45116e-09 3.12062e-09 4.98855e-10 -2.22167 -0.733487 0.20892 -2.03217e-16 0.0 -3.88251e-19 6.13524 -2.5327 -7.99647 -0.0381133 22.62 0.639193 -2.45671 -31.359 -4.21655 2.03217e-16 0.0 3.88251e-19 21.1375 -54.1083 11.5168 3.24558 75.1767 -3.34773 -6.03322 -12.2422 -17.6698
-14.5398 76.8247 -159.397 -11.4712 -8.6031 14.8039 9.2598 19.3217 10.3813 -0.302111 -7.20487 3.29771 0.335618 3.71251 0.830543 -2.79126 -14.6502 1.21493 -0.0 0.0 0.0 -0.0 0.0 0.0 -4.70078e-13 1.84476e-13 -4.09546e-13 71.5058 25.0701 20.9622 -14.3423 -7.23402 26.2454 -0.0465569 6.14626 0.867162 5.56703e-09 -5.20088e-09 2.88322e-09 9.6326e-09 -8.98038e-09 4.95196e-09 5.56703e-09 -5.20087e-09 2.8832e-09 7.73091 5.47488 0.417314 5.56703e-09 -5.20087e-09 2.88322e-09 2.90554 0.965183 0.102902 5.56704e-09 -5.20087e-09 2.88321e-09 10.2786 0.731801 0.0259123 5.56704e-09 -5.20087e-09 2.88321e-09 2.22167 -0.733487 -0.20892 -4.70303e-13 1.84468e-13 -4.09795e-13 -86.3451 2.80226 11.9597 17.2777 -9.93071 -32.4193 0.00348729 -1.68593 0.237011 6.63923e-09 2.66236e-09 4.36544e-10 1.14771e-08 4.61679e-09 7.48804e-10 6.63923e-09 2.66236e-09 4.36547e-10 -7.73091 5.47488 -0.417314 6.63923e-09 2.66236e-09 4.36541e-10 -2.90554 0.965183 -0.102902 6.63922e-09 2.66236e-09 4.36545e-10 -10.2786 0.731801 -0.0259123 6.63923e-09 2.66236e-09 4.36538e-10 -2.22167 -0.733487 0.20892 -2.03217e-16 0.0 -3.88251e-19 6.3863 -1.82837 -8.68895 -0.0272061 21.5744 0.63671 -1.81019 -30.7787 -3.04471 2.03217e-16 0.0 3.88251e-19 20.6514 -56.194 12.7537 2.89177 73.6112 -2.88169 -6.60677 -12.1108 -19.5082
